<svg xmlns="http://www.w3.org/2000/svg" width="610" height="56" viewBox="0 0 610 56">
  <metadata><?xpacket begin="﻿" id="W5M0MpCehiHzreSzNTczkc9d"?>
<x:xmpmeta xmlns:x="adobe:ns:meta/" x:xmptk="Adobe XMP Core 5.6-c142 79.160924, 2017/07/13-01:06:39        ">
   <rdf:RDF xmlns:rdf="http://www.w3.org/1999/02/22-rdf-syntax-ns#">
      <rdf:Description rdf:about=""/>
   </rdf:RDF>
</x:xmpmeta>
                                                                                                    
                                                                                                    
                                                                                                    
                                                                                                    
                                                                                                    
                                                                                                    
                                                                                                    
                                                                                                    
                                                                                                    
                                                                                                    
                                                                                                    
                                                                                                    
                                                                                                    
                                                                                                    
                                                                                                    
                                                                                                    
                                                                                                    
                                                                                                    
                                                                                                    
                                                                                                    
                           
<?xpacket end="w"?></metadata>
<defs>
    <style>
      .cls-1, .cls-2 {
        fill-rule: evenodd;
      }

      .cls-2 {
        fill: #73746f;
      }
    </style>
  </defs>
  <path id="ONE" class="cls-1" d="M28.442,56c16,0,28-12,28-28s-12-28-28-28-28,12-28,28S12.441,56,28.442,56Zm0-11.2c-9.84,0-16.8-7.04-16.8-16.8,0-9.84,6.96-16.8,16.8-16.8,9.76,0,16.8,6.96,16.8,16.8C45.242,37.759,38.2,44.8,28.442,44.8ZM61.88,56h11.2V19.2L103.321,56h9.76V0h-11.2V36.8L71.641,0H61.88V56Zm59.84,0h36.161V44.8H132.92V33.6h24.961V22.4H132.92V11.2h24.961V0H121.72V56Z"/>
  <path id="MARKETING" class="cls-2" d="M166.843,56h5.12V10.4L198.443,56H203l26.56-45.6V56h5.12V0h-5.2l-28.72,49.44L172.043,0h-5.2V56Zm123.919,0h5.68L270.362,0H265l-26.08,56h5.68l5.44-11.84h35.2Zm-38.32-16.96,15.2-32.88,15.28,32.88h-30.48ZM339.4,56l-15.44-22.88a17.07,17.07,0,0,0,10.6-5.32,15.955,15.955,0,0,0,3.8-11,17.234,17.234,0,0,0-2.2-8.72,15.137,15.137,0,0,0-6.24-5.96A19.778,19.778,0,0,0,320.6,0h-19.92V56h5.12V33.36h12.08L332.842,56h6.56ZM305.8,5.12h14.8q5.838,0,9.24,3.24a11.133,11.133,0,0,1,3.4,8.44,10.6,10.6,0,0,1-3.48,8.36,13.31,13.31,0,0,1-9.16,3.08H305.8V5.12ZM345.4,56h5.12V38.16L360.6,27.92,382.122,56h6.48l-24.32-31.76L388.2,0h-7.28l-30.4,30.88V0H345.4V56Zm47.28,0h33.44V50.88H397.8V30.56h28.32V25.44H397.8V5.12h28.32V0h-33.44V56Zm57.6,0h5.12V5.12h22.96V0H427.4V5.12h22.88V56Zm31.92,0h5.12V0H482.2V56Zm15.2,0h5.12V8.24L542.279,56h5.12V0h-5.12V47.84L502.519,0H497.4V56Zm56.879-28a28.446,28.446,0,0,0,3.64,14.32,26.144,26.144,0,0,0,10.12,10.04A29.2,29.2,0,0,0,582.6,56a26.741,26.741,0,0,0,14.24-3.72A24.241,24.241,0,0,0,606.118,42a33.9,33.9,0,0,0,3.2-15.04V26.72h-28.8v5.12h22.96a21.886,21.886,0,0,1-3.16,9.76,19.019,19.019,0,0,1-7.28,6.8,22.16,22.16,0,0,1-10.68,2.48,23.976,23.976,0,0,1-11.88-2.92,20.761,20.761,0,0,1-8.16-8.12A23.745,23.745,0,0,1,559.4,28a23.752,23.752,0,0,1,2.92-11.84,20.853,20.853,0,0,1,8.12-8.12A23.6,23.6,0,0,1,582.2,5.12,21.681,21.681,0,0,1,591.438,7a30.422,30.422,0,0,1,7.64,5.16l2.32-4.88a32.772,32.772,0,0,0-8.76-5.4A26.745,26.745,0,0,0,582.438,0,28.83,28.83,0,0,0,568,3.64a26.233,26.233,0,0,0-10.08,10.04A28.449,28.449,0,0,0,554.278,28h0Z"/>
</svg>
